<svg id="Calque_1" data-name="Calque 1" xmlns="http://www.w3.org/2000/svg" viewBox="0 0 532.65 112.63"><defs><style>.cls-1{fill:#fff;}</style></defs><path class="cls-1" d="M611.36,448.83c-4.06,1-8.39-.33-9.91-2.9L541.17,343.1c-1.52-2.57.51-5.3,4.58-6.26s8.39.32,9.92,2.89l60.27,102.83C617.47,445.13,615.43,447.86,611.36,448.83Zm60.79-112c4.07,1,6.1,3.69,4.57,6.26L634,415.41c-1.53,2.57-5.85,3.85-9.92,2.89s-6.1-3.7-4.58-6.27l42.73-72.3C663.75,337.16,668.08,335.87,672.15,336.84Z" transform="translate(-409.06 -336.51)"/><path class="cls-1" d="M717.92,336.51c4.32,0,7.63,2.09,7.63,4.82V444.17c0,2.73-3.31,4.82-7.63,4.82s-7.63-2.09-7.63-4.82V341.33C710.29,338.6,713.6,336.51,717.92,336.51Z" transform="translate(-409.06 -336.51)"/><path class="cls-1" d="M827.53,448.83c-4.07,1-8.39-.33-9.92-2.9L757.34,343.1c-1.53-2.57.51-5.3,4.58-6.26s8.39.32,9.91,2.89l60.28,102.83C833.63,445.13,831.6,447.86,827.53,448.83Z" transform="translate(-409.06 -336.51)"/><path class="cls-1" d="M934.08,336.51c4.33,0,7.63,2.09,7.63,4.82V444.17c0,2.73-3.3,4.82-7.63,4.82s-7.62-2.09-7.62-4.82V341.33C926.46,338.6,929.76,336.51,934.08,336.51Z" transform="translate(-409.06 -336.51)"/><path class="cls-1" d="M459.2,392.77a2.45,2.45,0,0,1-1.81-.78l-43.15-46.35a2.46,2.46,0,0,1,1.8-4.14h86.31a2.46,2.46,0,0,1,1.8,4.14L461,392A2.45,2.45,0,0,1,459.2,392.77Z" transform="translate(-409.06 -336.51)"/><path class="cls-1" d="M497.67,346,459.2,387.32,420.72,346h76.95m4.68-9H416a7,7,0,0,0-5.1,11.71l43.16,46.34a7,7,0,0,0,10.19,0l43.16-46.34a7,7,0,0,0-5.1-11.71Z" transform="translate(-409.06 -336.51)"/><path class="cls-1" d="M437,444.5a2.46,2.46,0,0,1-1.87-4.07l22.06-25.76a2.47,2.47,0,0,1,3.75,0L483,440.43a2.41,2.41,0,0,1,.36,2.64,2.37,2.37,0,0,1-2.23,1.43Z" transform="translate(-409.06 -336.51)"/><path class="cls-1" d="M459,419.4,476.68,440H441.4L459,419.4m0-10.09a6.94,6.94,0,0,0-5.29,2.43l-22.06,25.77A7,7,0,0,0,437,449h44.13a7,7,0,0,0,5.29-11.49l-22.07-25.77a6.94,6.94,0,0,0-5.29-2.43Z" transform="translate(-409.06 -336.51)"/><path class="cls-1" d="M888.31,336.84c4.07,1,6.11,3.69,4.58,6.26l-42.73,72.31c-1.52,2.57-5.85,3.85-9.91,2.89s-6.11-3.7-4.58-6.27l42.72-72.3C879.92,337.16,884.24,335.87,888.31,336.84Z" transform="translate(-409.06 -336.51)"/></svg>