<svg id="Capa_1" enable-background="new 0 0 512.841 512.841" height="512" viewBox="0 0 512.841 512.841" width="512" xmlns="http://www.w3.org/2000/svg"><g><path d="m493.751 397.13-43.82-41.261c-6.877-6.475-15.867-10.041-25.313-10.041h-3.61l25.494-101.633c.92-3.669 1.015-7.568.273-11.277l-3.236-16.194 46.359-184.818c3.442-13.723-4.921-27.688-18.646-31.131-13.722-3.441-27.688 4.923-31.129 18.645l-20.961 83.564c-1.008 4.019 1.432 8.092 5.45 9.1 4.014 1.011 8.091-1.433 9.099-5.449l20.961-83.564c1.431-5.701 7.233-9.173 12.931-7.746 5.701 1.431 9.176 7.231 7.746 12.932l-46.769 186.455c-.271 1.079-.298 2.204-.08 3.295l3.567 17.85c.308 1.543.269 3.165-.114 4.689l-26.409 105.282h-41.685l28.876-115.118c.383-1.526 1.114-2.976 2.113-4.189l11.569-14.053c.707-.858 1.214-1.863 1.484-2.941l18.033-71.89c1.008-4.019-1.432-8.092-5.45-9.1-4.018-1.014-8.092 1.433-9.099 5.449l-17.622 70.252-10.496 12.749c-2.404 2.921-4.161 6.403-5.081 10.072l-29.792 118.769h-132.024c-4.142 0-7.5 3.357-7.5 7.5s3.358 7.5 7.5 7.5h189.54v27.01c0 1.877-1.526 3.403-3.403 3.403h-26.504c-4.142 0-7.5 3.357-7.5 7.5s3.358 7.5 7.5 7.5h26.504c10.147 0 18.403-8.256 18.403-18.403v-27.01h3.708c5.608 0 10.946 2.117 15.03 5.962l43.82 41.26c8.766 8.254 13.792 19.893 13.792 31.933l.025 57.858-58.981.006-52.34-44.752c-9.548-8.164-21.726-12.66-34.288-12.66h-190.512c-12.563 0-24.74 4.496-34.288 12.66l-52.324 44.746-58.972.025v-57.884c0-12.04 5.027-23.679 13.792-31.933l43.819-41.259c4.084-3.846 9.422-5.963 15.03-5.963h3.708v27.01c0 10.147 8.255 18.403 18.403 18.403h233.708c4.142 0 7.5-3.357 7.5-7.5s-3.358-7.5-7.5-7.5h-233.706c-1.876 0-3.403-1.526-3.403-3.403v-27.01h77.477c4.142 0 7.5-3.357 7.5-7.5s-3.358-7.5-7.5-7.5h-19.961l-29.792-118.769c-.92-3.669-2.677-7.151-5.082-10.072l-10.496-12.749-46.36-184.818c-3.443-13.722-17.409-22.088-31.131-18.645-13.723 3.443-22.087 17.408-18.644 31.131l46.359 184.818-3.236 16.195c-.741 3.708-.646 7.607.274 11.277l25.493 101.632h-3.61c-9.445 0-18.435 3.566-25.313 10.042l-43.82 41.26c-11.762 11.076-18.508 26.696-18.508 42.853v57.884c0 8.257 6.718 14.975 14.975 14.975h58.998c3.566 0 7.023-1.276 9.732-3.594l13.685-11.701h316.249c.208 0 .412-.014.616-.031l13.72 11.731c2.71 2.318 6.167 3.595 9.733 3.595h58.998c8.257 0 14.975-6.718 14.975-14.975v-57.884c-.002-16.157-6.748-31.777-18.511-42.852zm-412.862-156.583c-.383-1.525-.422-3.147-.114-4.689l3.567-17.851c.218-1.091.191-2.216-.08-3.295l-46.771-186.457c-1.43-5.7 2.045-11.501 7.745-12.932 5.703-1.426 11.502 2.045 12.932 7.746l46.771 186.457c.271 1.078.777 2.083 1.484 2.941l11.569 14.053c1 1.214 1.73 2.663 2.113 4.189l28.876 115.118h-41.685zm82.311 214.887h18.573v27.111h-18.573zm33.573 0h18.574v27.111h-18.574zm33.574 0h18.573v27.111h-18.573zm33.573 0h18.573v27.111h-18.573zm33.574 0h18.574v27.111h-18.574zm33.573 0h18.573v27.111h-18.573zm-194.443 9.061c3.448-2.948 7.376-5.226 11.576-6.761v24.812h-32.687zm228.017 18.051v-24.812c4.2 1.535 8.128 3.813 11.576 6.761l21.111 18.051z"/><path d="m151.993 170.066c1.391 1.132 3.064 1.682 4.728 1.682 2.18 0 4.341-.945 5.823-2.768 23.1-28.405 57.317-44.696 93.876-44.696 36.206 0 70.21 16.027 93.294 43.974 2.637 3.192 7.363 3.645 10.559 1.006 3.193-2.638 3.644-7.365 1.006-10.559-25.943-31.407-64.163-49.421-104.858-49.421-41.094 0-79.553 18.309-105.514 50.231-2.614 3.214-2.128 7.938 1.086 10.551z"/><path d="m327.818 188.965c2.567 3.25 7.284 3.803 10.534 1.237 3.25-2.567 3.804-7.284 1.236-10.534-20.271-25.665-50.585-40.384-83.168-40.384-32.997 0-63.548 15.025-83.82 41.223-2.535 3.275-1.934 7.986 1.342 10.521 1.366 1.057 2.981 1.568 4.584 1.568 2.242 0 4.459-1 5.937-2.91 17.41-22.499 43.637-35.402 71.957-35.402 27.965 0 53.989 12.641 71.398 34.681z"/><path d="m305.802 209.583c2.429 3.356 7.119 4.105 10.473 1.677 3.355-2.43 4.105-7.119 1.676-10.474-14.283-19.726-37.285-31.502-61.531-31.502-24.68 0-47.92 12.111-62.168 32.397-2.381 3.39-1.563 8.067 1.827 10.448 1.311.921 2.815 1.363 4.304 1.363 2.36 0 4.684-1.112 6.144-3.19 11.443-16.292 30.095-26.019 49.894-26.019 19.45.001 37.91 9.459 49.381 25.3z"/><path d="m293.551 232.771c3.598-2.051 4.853-6.631 2.801-10.229-8.177-14.346-23.478-23.258-39.932-23.258-16.963 0-32.49 9.317-40.522 24.315-1.956 3.651-.581 8.197 3.07 10.152 1.127.604 2.339.891 3.535.89 2.676 0 5.266-1.436 6.618-3.96 5.417-10.114 15.877-16.397 27.299-16.397 11.078 0 21.385 6.011 26.9 15.686 2.052 3.598 6.631 4.852 10.231 2.801z"/><path d="m256.42 229.535c-13.064 0-23.693 10.629-23.693 23.693s10.628 23.693 23.693 23.693 23.693-10.629 23.693-23.693-10.628-23.693-23.693-23.693zm0 32.387c-4.793 0-8.693-3.899-8.693-8.693s3.899-8.693 8.693-8.693 8.693 3.899 8.693 8.693-3.899 8.693-8.693 8.693z"/></g></svg>